<svg id="Layer_3" enable-background="new 0 0 64 64" height="512" viewBox="0 0 64 64" width="512" xmlns="http://www.w3.org/2000/svg"><path d="m15 10h34v44h-34z" fill="#69d6f4"/><path d="m49 54v4c0 2.21-1.79 4-4 4h-26c-2.21 0-4-1.79-4-4v-4z" fill="#969faa"/><path d="m49 6v4h-34v-4c0-2.21 1.79-4 4-4h26c2.21 0 4 1.79 4 4z" fill="#969faa"/><path d="m25.9 30c-.05-.23-.13-.46-.24-.68l-3.66-7.32h-3v-8h20.62c-2.24 2.33-3.62 5.5-3.62 9 0 3.16 1.13 6.05 3 8.3 1.55 1.88 3.63 3.31 6 4.07v14.63h-26v-4h5v-12.24c.4-.17.75-.41 1.05-.71.59-.59.95-1.39.95-2.29 0-.26-.03-.51-.1-.76z" fill="#b4dd7f"/><path d="m24 33.76v12.24h-5-1v-8h-8v8h-6v-12.24c.38.15.8.24 1.24.24h1.52c1.79 0 3.24-1.45 3.24-3.24 0 1.79 1.45 3.24 3.24 3.24h1.52c1.79 0 3.24-1.45 3.24-3.24 0 1.79 1.45 3.24 3.24 3.24h1.52c.44 0 .86-.09 1.24-.24z" fill="#ccd1d9"/><path d="m18 38v8h-3-5v-8z" fill="#cf9e76"/><path d="m25.9 30h-23.85c-.03.19-.05.39-.05.59v.17c0 1.35.82 2.51 2 3 .38.15.8.24 1.24.24h1.52c1.79 0 3.24-1.45 3.24-3.24 0 1.79 1.45 3.24 3.24 3.24h1.52c1.79 0 3.24-1.45 3.24-3.24 0 1.79 1.45 3.24 3.24 3.24h1.52c.44 0 .86-.09 1.24-.24.4-.17.75-.41 1.05-.71.59-.59.95-1.39.95-2.29 0-.26-.03-.51-.1-.76z" fill="#ff826e"/><path d="m62 23c0 3.16-1.13 6.05-3 8.3v-1.18c0-1.83-1.25-3.43-3.03-3.88l-2.7-.67-2.27-.57v-1.55c1.19-.7 2-1.97 2-3.45v-2c0-2.33-1.99-4.19-4.36-3.98-2.1.18-3.64 2.08-3.64 4.19v1.79c0 1.48.81 2.75 2 3.45v1.55l-2.27.57-2.7.67c-1.78.45-3.03 2.05-3.03 3.88v1.18c-1.87-2.25-3-5.14-3-8.3 0-3.5 1.38-6.67 3.62-9 2.37-2.47 5.7-4 9.38-4 7.18 0 13 5.82 13 13z" fill="#e6e9ed"/><path d="m59 30.12v1.18c-2.38 2.87-5.98 4.7-10 4.7-1.39 0-2.74-.22-4-.63-2.37-.76-4.45-2.19-6-4.07v-1.18c0-1.83 1.25-3.43 3.03-3.88l2.7-.67 1.27 4.43 3-3 3 3 1.27-4.43 2.7.67c1.78.45 3.03 2.05 3.03 3.88z" fill="#fcd770"/><path d="m53.27 25.57-1.27 4.43-3-3 2-2z" fill="#ffc729"/><path d="m53 18v2c0 1.48-.81 2.75-2 3.45v1.55l-2 2-2-2v-1.55c-1.19-.7-2-1.97-2-3.45v-1.79c0-2.11 1.54-4.01 3.64-4.19 2.37-.21 4.36 1.65 4.36 3.98z" fill="#f0d0b4"/><path d="m49 27-3 3-1.27-4.43 2.27-.57z" fill="#ffc729"/><path d="m25.66 29.32-3.66-7.32h-17l-2.79 7.45c-.07.18-.12.36-.16.55h23.85c-.05-.23-.13-.46-.24-.68z" fill="#ff826e"/><path d="m36 5h2v2h-2z"/><path d="m26 5h8v2h-8z"/><path d="m28 57h8v2h-8z"/><path d="m42 57h2v2h-2z"/><path d="m20 57h2v2h-2z"/><path d="m63 23c0-7.382-5.747-13.433-13-13.949v-3.051c0-2.757-2.243-5-5-5h-26c-2.757 0-5 2.243-5 5v15h-9.693l-3.036 8.098c-.18.476-.271.977-.271 1.489v.177c0 1.513.804 2.833 2 3.583v12.653h11v11c0 2.757 2.243 5 5 5h26c2.757 0 5-2.243 5-5v-21.051c7.253-.516 13-6.567 13-13.949zm-2 0c0 1.949-.477 3.785-1.305 5.414-.555-1.527-1.833-2.729-3.483-3.141l-4.212-1.054v-.239c1.246-.939 2-2.416 2-3.979v-2c0-1.397-.591-2.741-1.622-3.687-1.03-.943-2.42-1.419-3.823-1.294-2.554.221-4.555 2.501-4.555 5.187v1.793c0 1.563.754 3.04 2 3.979v.239l-4.212 1.054c-1.651.413-2.928 1.614-3.483 3.141-.828-1.628-1.305-3.464-1.305-5.413 0-6.617 5.383-12 12-12s12 5.383 12 12zm-14.306 3.108.892.892-1.091 1.091-.516-1.805zm1.306-1.522v-1.716l-.497-.289c-.941-.548-1.503-1.513-1.503-2.581v-1.793c0-1.659 1.198-3.062 2.729-3.195.851-.072 1.672.201 2.298.776.619.567.973 1.373.973 2.212v2c0 1.068-.562 2.033-1.503 2.581l-.497.289v1.716l-1 1zm3.306 1.522.714.178-.516 1.805-1.09-1.091zm-34.306 18.892h-6v-6h6zm3 2h5v-12.654c1.196-.75 2-2.07 2-3.583 0-.654-.154-1.31-.447-1.895l-3.935-7.868h-2.618v-6h17.527c-1.588 2.27-2.527 5.026-2.527 8 0 5.957 3.746 11.042 9 13.061v12.939h-24zm-16.976-16h5.952c-.12 1.121-1.06 2-2.212 2h-1.528c-1.152 0-2.092-.879-2.212-2zm18.358-8 3 6h-5.602l-1.499-6zm-6.163 0 1.501 6h-5.44l1.501-6zm1.757 8c-.12 1.121-1.06 2-2.212 2h-1.527c-1.152 0-2.093-.879-2.212-2zm8 0c-.12 1.121-1.06 2-2.212 2h-1.527c-1.152 0-2.093-.879-2.212-2zm-5.976-28h26c1.654 0 3 1.346 3 3v3h-32v-3c0-1.654 1.346-3 3-3zm-3 8h25.826c-.945.567-1.822 1.234-2.605 2h-21.221v8h-2zm-10.307 12h5.025l-1.499 6h-5.776zm-.693 11.976c.08.005.155.024.236.024h1.527c1.305 0 2.459-.605 3.236-1.536.779.931 1.933 1.536 3.237 1.536h1.527c1.305 0 2.459-.605 3.236-1.536.779.931 1.933 1.536 3.237 1.536h1.527c.081 0 .156-.019.236-.024v10.024h-4v-8h-9.999v8h-4zm13 12.024v4h28v-14.332c.651.143 1.319.233 2 .281v16.051h-32v-6zm27 14h-26c-1.654 0-3-1.346-3-3v-3h32v3c0 1.654-1.346 3-3 3zm4-26c-3.585 0-6.799-1.588-9-4.089v-.788c0-1.379.935-2.576 2.272-2.911l1.765-.441 1.468 5.138 3.495-3.495 3.495 3.495 1.468-5.138 1.765.441c1.337.335 2.272 1.532 2.272 2.911v.788c-2.201 2.501-5.415 4.089-9 4.089z"/><path d="m33 33c1.103 0 2 .897 2 2h2c0-1.859-1.279-3.411-3-3.858v-2.142h-2v2h-3v4c0 2.206 1.794 4 4 4 1.103 0 2 .897 2 2v2h-2c-1.103 0-2-.897-2-2h-2c0 1.859 1.279 3.411 3 3.858v2.142h2v-2h3v-4c0-2.206-1.794-4-4-4-1.103 0-2-.897-2-2v-2z"/><path d="m22 17h11v2h-11z"/></svg>