<svg xmlns="http://www.w3.org/2000/svg" xmlns:xlink="http://www.w3.org/1999/xlink" viewBox="-1890 0 652.937 83.26">
  <defs>
    <style>
      .cls-1 {
        clip-path: url(#clip-path);
      }

      .cls-2 {
        fill: none;
        stroke: #231f20;
        stroke-miterlimit: 10;
        stroke-width: 0.972px;
      }
    </style>
    <clipPath id="clip-path">
      <path id="Path_1734" data-name="Path 1734" d="M223.8,166.96H876.737V84.087L223.8,83.7Z" transform="translate(0)"/>
    </clipPath>
  </defs>
  <g id="Group_1517" data-name="Group 1517" class="cls-1" transform="translate(-2113.8 -83.7)">
    <path id="Path_1751" data-name="Path 1751" class="cls-2" d="M941,549.073,1557.919.4M925.931,549.073,1542.854.4M910.619,549.073,1527.542.4M895.554,549.073,1512.477.4M880.49,549.073,1497.412.4M865.178,549.073,1482.1.4M850.113,549.073,1467.035.4M834.8,549.073,1451.724.4M819.736,549.073,1436.659.4M804.424,549.073,1421.346.4M789.359,549.073,1406.281.4M774.294,549.073,1391.216.4M758.982,549.073,1375.9.4M743.917,549.073,1360.84.4M728.6,549.073,1345.528.4M713.54,549.073,1330.463.4M698.228,549.073,1315.151.4M683.163,549.073,1300.086.4M667.851,549.073,1284.774.4M652.786,549.073,1269.709.4M637.721,549.073,1254.644.4M622.409,549.073,1239.332.4M607.344,549.073,1224.267.4M592.032,549.073,1208.955.4M576.967,549.073,1193.89.4M561.655,549.073,1178.578.4M546.59,549.073,1163.513.4M531.525,549.073,1148.448.4M516.214,549.073,1133.136.4M501.149,549.073,1118.071.4M485.837,549.073,1102.759.4M470.772,549.073,1087.694.4M455.46,549.073,1072.383.4M440.395,549.073,1057.318.4M425.083,549.073,1042.006.4M410.018,549.073,1026.941.4M394.953,549.073,1011.876.4M379.641,549.073,996.564.4M364.576,549.073,981.5.4M349.264,549.073,966.187.4M334.2,549.073,951.122.4M318.887,549.073,935.81.4M303.822,549.073,920.745.4M288.757,549.073,905.68.4M273.445,549.073,890.368.4M258.38,549.073,875.3.4M243.068,549.073,859.991.4M228,549.073,844.926.4M212.691,549.073,829.614.4M197.626,549.073,814.549.4M182.314,549.073,799.237.4M167.25,549.073,784.172.4M152.185,549.073,769.107.4M136.873,549.073,753.8.4M121.808,549.073,738.731.4M106.5,549.073,723.419.4M91.431,549.073,708.354.4M76.119,549.073,693.042.4M61.054,549.073,677.977.4M45.989,549.073,662.912.4M30.677,549.073,647.6.4M15.612,549.073,632.535.4M.3,549.073,617.223.4" transform="translate(-212.959 -103.121)"/>
  </g>
</svg>
